<svg width="52" height="56" viewBox="0 0 52 56" fill="none" xmlns="http://www.w3.org/2000/svg">
<path d="M26 49C25.7149 49.0018 25.4322 48.9429 25.1682 48.8268C24.9042 48.7107 24.6641 48.5396 24.4617 48.3233L7.62667 30.17C5.51496 27.8721 4.33044 24.7697 4.33044 21.5367C4.33044 18.3037 5.51496 15.2013 7.62667 12.9033C9.75491 10.6179 12.6378 9.33444 15.6433 9.33444C18.6489 9.33444 21.5318 10.6179 23.66 12.9033L26 15.4233L28.34 12.9033C30.4682 10.6179 33.3511 9.33444 36.3567 9.33444C39.3622 9.33444 42.2451 10.6179 44.3733 12.9033C46.4851 15.2013 47.6696 18.3037 47.6696 21.5367C47.6696 24.7697 46.4851 27.8721 44.3733 30.17L27.5383 48.3233C27.3359 48.5396 27.0958 48.7107 26.8318 48.8268C26.5678 48.9429 26.2852 49.0018 26 49ZM15.6433 14C14.7261 13.9955 13.8172 14.1871 12.9693 14.5636C12.1213 14.9401 11.3511 15.494 10.7033 16.1933C9.3948 17.61 8.66025 19.5269 8.66025 21.525C8.66025 23.5232 9.3948 25.4401 10.7033 26.8567L26 43.3533L41.2967 26.8567C42.6052 25.4401 43.3398 23.5232 43.3398 21.525C43.3398 19.5269 42.6052 17.61 41.2967 16.1933C39.9613 14.8347 38.1938 14.0777 36.3567 14.0777C34.5196 14.0777 32.7521 14.8347 31.4167 16.1933L27.5383 20.3933C27.3369 20.612 27.0973 20.7856 26.8333 20.9041C26.5692 21.0225 26.286 21.0835 26 21.0835C25.714 21.0835 25.4308 21.0225 25.1668 20.9041C24.9027 20.7856 24.6631 20.612 24.4617 20.3933L20.5833 16.1933C19.9356 15.494 19.1654 14.9401 18.3174 14.5636C17.4695 14.1871 16.5605 13.9955 15.6433 14Z" fill="#231F20"/>
</svg>
