<svg width="53" height="54" viewBox="0 0 53 54" fill="none" xmlns="http://www.w3.org/2000/svg">
<path d="M26.4031 24.6612C28.1438 24.6612 29.8454 24.1352 31.2927 23.1499C32.74 22.1645 33.8681 20.7639 34.5342 19.1253C35.2003 17.4866 35.3746 15.6835 35.035 13.944C34.6954 12.2044 33.8572 10.6065 32.6264 9.35235C31.3955 8.0982 29.8273 7.24411 28.1201 6.89809C26.4129 6.55206 24.6433 6.72965 23.0351 7.4084C21.4269 8.08714 20.0524 9.23656 19.0853 10.7113C18.1182 12.186 17.6021 13.9198 17.6021 15.6935C17.6021 18.0719 18.5293 20.3528 20.1798 22.0346C21.8303 23.7164 24.0689 24.6612 26.4031 24.6612ZM26.4031 11.2096C27.2734 11.2096 28.1242 11.4726 28.8479 11.9653C29.5716 12.458 30.1356 13.1583 30.4686 13.9776C30.8017 14.7969 30.8889 15.6985 30.7191 16.5682C30.5493 17.438 30.1302 18.237 29.5147 18.864C28.8993 19.4911 28.1152 19.9182 27.2616 20.0912C26.408 20.2642 25.5232 20.1754 24.7191 19.836C23.915 19.4966 23.2277 18.9219 22.7442 18.1846C22.2607 17.4472 22.0026 16.5803 22.0026 15.6935C22.0026 14.5043 22.4662 13.3638 23.2915 12.5229C24.1167 11.682 25.236 11.2096 26.4031 11.2096Z" fill="#231F20"/>
<path d="M26.4031 29.1451C22.3183 29.1451 18.4008 30.7985 15.5124 33.7416C12.624 36.6847 11.0013 40.6764 11.0013 44.8385C11.0013 45.4331 11.2331 46.0034 11.6457 46.4238C12.0584 46.8443 12.618 47.0805 13.2015 47.0805C13.7851 47.0805 14.3447 46.8443 14.7574 46.4238C15.17 46.0034 15.4018 45.4331 15.4018 44.8385C15.4018 41.8656 16.5609 39.0143 18.624 36.9121C20.6872 34.8099 23.4854 33.6289 26.4031 33.6289C29.3208 33.6289 32.1191 34.8099 34.1822 36.9121C36.2453 39.0143 37.4044 41.8656 37.4044 44.8385C37.4044 45.4331 37.6362 46.0034 38.0488 46.4238C38.4615 46.8443 39.0211 47.0805 39.6047 47.0805C40.1882 47.0805 40.7479 46.8443 41.1605 46.4238C41.5731 46.0034 41.8049 45.4331 41.8049 44.8385C41.8049 40.6764 40.1822 36.6847 37.2938 33.7416C34.4054 30.7985 30.4879 29.1451 26.4031 29.1451Z" fill="#231F20"/>
</svg>
