<svg width="61" height="68" viewBox="0 0 61 68" fill="none" xmlns="http://www.w3.org/2000/svg">
<path d="M54.8237 24.1188C54.6448 23.8855 54.4226 23.6982 54.1725 23.5698C53.9224 23.4415 53.6503 23.375 53.375 23.375H41.9375V14.875C41.9375 13.1842 41.335 11.5627 40.2625 10.3672C39.19 9.17165 37.7354 8.5 36.2187 8.5H24.7812C23.2645 8.5 21.8099 9.17165 20.7375 10.3672C19.665 11.5627 19.0625 13.1842 19.0625 14.875V23.375H7.62498C7.34866 23.3715 7.07497 23.435 6.82286 23.5612C6.57075 23.6873 6.34625 23.873 6.16493 24.1055C5.9836 24.3379 5.84978 24.6116 5.77273 24.9074C5.69569 25.2032 5.67726 25.5142 5.71873 25.8188L9.30248 51.6375C9.44035 52.6509 9.90212 53.5747 10.6027 54.2385C11.3033 54.9024 12.1955 55.2616 13.115 55.25H47.9231C48.8425 55.2616 49.7348 54.9024 50.4354 54.2385C51.136 53.5747 51.5977 52.6509 51.7356 51.6375L55.2812 25.8188C55.3194 25.5154 55.2983 25.2064 55.2193 24.913C55.1404 24.6195 55.0054 24.3486 54.8237 24.1188ZM22.875 14.875C22.875 14.3114 23.0758 13.7709 23.4333 13.3724C23.7908 12.9739 24.2757 12.75 24.7812 12.75H36.2187C36.7243 12.75 37.2092 12.9739 37.5667 13.3724C37.9241 13.7709 38.125 14.3114 38.125 14.875V23.375H22.875V14.875ZM47.9231 51H13.0769L9.85529 27.625H51.1447L47.9231 51Z" fill="black"/>
</svg>
